<?xml version="1.0" standalone="no"?>
<!DOCTYPE svg PUBLIC "-//W3C//DTD SVG 20010904//EN"
 "http://www.w3.org/TR/2001/REC-SVG-20010904/DTD/svg10.dtd">
<svg version="1.0" xmlns="http://www.w3.org/2000/svg"
 width="704.000000pt" height="704.000000pt" viewBox="0 0 704.000000 704.000000"
 preserveAspectRatio="xMidYMid meet">
<metadata>
Created by potrace 1.14, written by Peter Selinger 2001-2017
</metadata>
<g transform="translate(0.000000,704.000000) scale(0.100000,-0.100000)"
fill="#000000" stroke="none">
<path d="M1925 3773 c-1658 -2814 -1633 -2772 -1622 -2762 4 3 727 966 1608
2140 880 1174 1603 2133 1607 2132 4 0 17 -27 30 -60 12 -32 175 -456 362
-943 187 -487 542 -1411 789 -2055 l449 -1170 -32 -7 c-17 -4 -152 -19 -301
-32 -148 -14 -643 -62 -1100 -106 -456 -44 -1442 -138 -2190 -210 -748 -71
-1369 -132 -1380 -134 -11 -2 1520 -4 3403 -5 1883 0 3421 2 3419 7 -37 71
-3443 5902 -3447 5902 -3 0 -721 -1214 -1595 -2697z"/>
<path d="M3002 3205 c-327 -29 -596 -56 -599 -59 -7 -7 -133 -1429 -128 -1435
5 -4 466 36 469 41 2 2 26 270 54 597 28 326 53 596 56 598 3 3 136 17 296 31
l292 25 54 -54 55 -55 -47 -537 c-26 -296 -45 -539 -43 -542 5 -4 461 34 467
40 3 3 92 1019 92 1057 0 26 -24 55 -157 189 l-157 159 -55 -1 c-31 -1 -323
-25 -649 -54z"/>
</g>
</svg>
